<?xml version="1.0" standalone="no"?>
<!DOCTYPE svg PUBLIC "-//W3C//DTD SVG 20010904//EN"
 "http://www.w3.org/TR/2001/REC-SVG-20010904/DTD/svg10.dtd">
<svg version="1.0" xmlns="http://www.w3.org/2000/svg"
 width="512.000000pt" height="512.000000pt" viewBox="0 0 512.000000 512.000000"
 preserveAspectRatio="xMidYMid meet">
<metadata>
Created by potrace 1.14, written by Peter Selinger 2001-2017
</metadata>
<g transform="translate(0.000000,512.000000) scale(0.100000,-0.100000)"
fill="#000000" stroke="none">
<path d="M950 5053 c-122 -21 -267 -84 -350 -151 -140 -113 -223 -244 -271
-427 -18 -67 -18 -147 -16 -1930 1 -1023 5 -1869 9 -1880 3 -11 11 -40 18 -65
19 -71 81 -189 131 -253 109 -135 236 -217 409 -263 l85 -23 1610 2 c886 1
1619 5 1630 9 11 3 39 11 62 17 235 63 436 263 510 505 8 27 18 59 21 70 4 12
8 858 9 1881 2 1827 2 1861 -18 1938 -74 292 -290 500 -584 562 -60 12 -294
14 -1650 13 -869 0 -1591 -3 -1605 -5z m3186 -508 c60 -18 115 -65 146 -125
l23 -45 3 -1795 c2 -1945 5 -1859 -50 -1923 -35 -40 -88 -76 -131 -88 -53 -14
-3082 -14 -3135 1 -58 15 -126 72 -153 127 l-24 48 0 1816 0 1815 25 49 c28
55 69 91 132 116 40 17 138 18 1579 18 1325 1 1542 -1 1585 -14z"/>
<path d="M1693 4046 c-175 -43 -321 -188 -368 -365 -16 -63 -20 -391 -5 -470
25 -133 142 -287 261 -345 118 -57 94 -56 985 -56 l822 0 72 25 c136 46 242
138 299 258 42 88 52 158 50 352 -1 198 -8 243 -49 330 -59 123 -168 217 -303
261 l-72 23 -820 0 c-623 -1 -832 -4 -872 -13z m1617 -611 l0 -125 -750 0
-750 0 0 125 0 125 750 0 750 0 0 -125z"/>
<path d="M1472 2293 c-54 -19 -122 -85 -144 -141 -22 -58 -18 -154 9 -207 61
-117 202 -167 321 -115 86 38 139 112 149 203 19 184 -160 322 -335 260z"/>
<path d="M2453 2284 c-86 -42 -130 -107 -140 -207 -10 -107 43 -196 142 -243
156 -74 334 28 352 201 20 192 -180 332 -354 249z"/>
<path d="M3476 2294 c-57 -21 -102 -58 -133 -112 -24 -40 -28 -58 -28 -122 0
-83 20 -133 72 -182 119 -113 318 -80 396 67 30 57 30 163 0 227 -53 110 -191
165 -307 122z"/>
<path d="M1473 1542 c-97 -39 -150 -110 -159 -213 -5 -52 -2 -73 16 -114 42
-98 126 -155 227 -155 138 1 239 95 251 235 14 177 -171 313 -335 247z"/>
<path d="M2479 1547 c-142 -53 -209 -221 -141 -353 91 -177 353 -177 444 0 60
117 16 265 -98 332 -52 31 -152 41 -205 21z"/>
<path d="M3472 1544 c-23 -9 -62 -35 -86 -59 -151 -149 -60 -406 151 -423 149
-12 263 88 269 236 4 99 -38 179 -121 227 -56 33 -151 42 -213 19z"/>
</g>
</svg>
